<svg width="867" height="216" viewBox="0 0 867 216" fill="none" xmlns="http://www.w3.org/2000/svg">
<path d="M345 1856 c-38 -16 -92 -78 -101 -113 -4 -15 -4 -178 0 -362 4 -206 2 -453 -5 -638 -11 -291 -11 -303 8 -335 13 -23 34 -39 68 -52 28 -11 68 -27 90 -37 79 -36 160 -51 295 -56 254 -9 421 46 560 186 211 214 264 499 140 756 -103 213 -343 407 -631 511 -41 15 -121 49 -179 76 -173 82 -192 87 -245 64z m210 -326 c22 -11 96 -44 164 -74 170 -76 252 -127 337 -211 180 -177 197 -401 45 -603 -35 -46 -116 -98 -186 -119 -89 -26 -292 -25 -360 3 l-50 20 -3 502 c-1 276 1 502 5 502 5 0 26 -9 48 -20z"/>
<path d="M3794 1839 c-76 -21 -143 -136 -247 -419 -151 -410 -247 -650 -262 -653 -5 -1 -22 34 -37 78 -37 112 -214 729 -234 817 -20 88 -35 119 -70 147 -35 27 -95 27 -144 0 -44 -25 -60 -54 -60 -110 0 -41 33 -185 68 -294 43 -132 83 -266 117 -390 52 -189 180 -565 215 -635 37 -74 67 -95 136 -95 105 0 132 50 399 745 128 332 202 511 236 568 53 91 63 147 33 190 -29 42 -99 65 -150 51z"/> 
<path d="M5339 1823 c-56 -34 -56 -37 -68 -573 -19 -846 -19 -889 4 -929 31 -53 67 -75 125 -75 35 0 56 6 71 20 44 39 49 70 49 299 0 158 3 215 12 215 6 0 59 -47 117 -104 271 -265 407 -357 541 -364 65 -4 67 -4 98 32 41 47 50 94 26 142 -19 37 -34 47 -114 80 -49 21 -128 76 -210 149 -128 112 -310 288 -310 300 0 6 28 39 62 71 206 196 479 503 515 579 45 95 -64 198 -166 155 -25 -10 -130 -118 -311 -321 -193 -216 -245 -267 -257 -256 -2 3 2 114 8 248 11 224 11 247 -4 279 -10 20 -30 44 -46 53 -36 21 -108 22 -142 0z"/>
<path d="M1971 1354 c-116 -31 -207 -101 -281 -215 -106 -165 -131 -433 -53 -586 32 -64 114 -143 185 -179 208 -105 556 -78 699 55 37 34 51 55 56 83 9 59 -3 87 -43 104 -43 18 -78 12 -155 -26 -31 -16 -81 -36 -110 -44 -71 -21 -210 -20 -271 2 -56 20 -138 76 -138 94 0 7 71 44 158 82 375 165 453 212 493 301 50 109 -9 242 -132 295 -114 49 -297 64 -408 34z m239 -215 c57 -13 74 -27 58 -46 -29 -35 -407 -208 -422 -193 -16 16 43 127 94 180 25 25 61 51 80 57 45 14 133 15 190 2z"/>
<path d="M4545 1360 c-108 -22 -193 -68 -279 -149 -150 -142 -205 -302 -176 -510 37 -272 190 -401 459 -389 82 4 110 10 189 43 l93 38 22 -21 c42 -38 92 -62 131 -62 30 0 45 7 72 34 21 21 34 44 34 59 0 14 -20 72 -44 129 -32 75 -48 128 -57 193 -16 123 -6 325 20 400 31 88 10 125 -100 180 -117 59 -247 79 -364 55z m180 -222 c23 -10 25 -15 18 -47 -11 -52 -7 -272 7 -380 14 -107 13 -109 -64 -148 -89 -45 -210 -44 -266 4 -58 49 -74 95 -75 218 0 120 11 153 77 238 75 95 223 151 303 115z"/>
<path d="M7056 634 c-71 -39 -106 -101 -106 -187 0 -96 56 -171 149 -197 45 -12 1060 -13 1114 -1 58 14 103 50 132 106 46 93 24 194 -58 259 l-39 31 -581 2 c-516 2 -585 1 -611 -13z"/>
</svg>

